<svg width="30" height="30" viewBox="0 0 30 30" fill="none" xmlns="http://www.w3.org/2000/svg">
<rect x="0.5" y="0.5" width="29" height="29" rx="6.5" fill="white" stroke="#848687"/>
<g clip-path="url(#clip0_60_152)">
<path d="M18.1728 9C19.2702 9 20.192 9.37007 20.9383 10.1102C21.6845 10.8503 22.0576 11.7537 22.0576 12.8204C22.0576 13.3429 21.9479 13.8707 21.7284 14.4041C21.5089 14.9374 21.2675 15.4109 21.0041 15.8245C20.7407 16.2381 20.2963 16.7714 19.6708 17.4245C19.0453 18.0776 18.5185 18.6054 18.0905 19.0082C17.6626 19.4109 16.9767 20.0259 16.0329 20.8531L15.0123 21.7673L13.9918 20.8857C13.07 20.0367 12.3896 19.4109 11.9506 19.0082C11.5117 18.6054 10.9794 18.0776 10.3539 17.4245C9.7284 16.7714 9.28395 16.2381 9.02058 15.8245C8.7572 15.4109 8.52126 14.9374 8.31276 14.4041C8.10425 13.8707 8 13.3429 8 12.8204C8 11.7537 8.37311 10.8503 9.11934 10.1102C9.86557 9.37007 10.7764 9 11.8519 9C13.1248 9 14.1783 9.4898 15.0123 10.4694C15.8464 9.4898 16.8999 9 18.1728 9ZM15.0782 19.8408C16.1536 18.883 16.9383 18.1701 17.4321 17.702C17.9259 17.234 18.4691 16.6735 19.0617 16.0204C19.6543 15.3673 20.0658 14.7959 20.2963 14.3061C20.5267 13.8163 20.642 13.3211 20.642 12.8204C20.642 12.1238 20.406 11.5469 19.9342 11.0898C19.4623 10.6327 18.8752 10.4041 18.1728 10.4041C17.6461 10.4041 17.1468 10.5565 16.6749 10.8612C16.203 11.166 15.8683 11.5578 15.6708 12.0367H14.3539C14.1783 11.5578 13.8546 11.166 13.3827 10.8612C12.9108 10.5565 12.4005 10.4041 11.8519 10.4041C11.1495 10.4041 10.5679 10.6327 10.107 11.0898C9.64609 11.5469 9.41564 12.1238 9.41564 12.8204C9.41564 13.3211 9.52538 13.8163 9.74486 14.3061C9.96433 14.7959 10.3759 15.3673 10.9794 16.0204C11.583 16.6735 12.1317 17.234 12.6255 17.702C13.1193 18.1701 13.893 18.883 14.9465 19.8408L15.0123 19.9061L15.0782 19.8408Z" fill="#9B9B9B"/>
</g>
<defs>
<clipPath id="clip0_60_152">
<rect width="14.2222" height="12.8" fill="white" transform="translate(8 9)"/>
</clipPath>
</defs>
</svg>
